<svg width="528" height="108" viewBox="0 0 528 108" fill="none" xmlns="http://www.w3.org/2000/svg">
<path d="M426.472 90H411.062V17H441.308L461.6 85.8582H465.428L462.557 75.4V17H477.967V90H447.625L427.429 21.1419H423.505L426.472 31.6V90Z" fill="white"/>
<path d="M375.471 17C392.674 17 405.915 20.4533 405.915 42.0866C405.915 63.8216 392.674 67.2748 375.471 67.2748H366.579L366.779 90H351.018V17H375.471ZM366.579 53.0557H376.437C385.619 53.0557 390.355 52.04 390.355 42.0866C390.355 32.3364 385.619 31.3207 376.437 31.3207H366.579V53.0557Z" fill="white"/>
<path d="M294.894 90L275.535 17H291.07L308.702 84.5409H312.61L330.337 17H345.872L326.167 90H294.894Z" fill="white"/>
<path d="M205.199 90L220.638 90V17H205.199L205.199 90Z" fill="white"/>
<path d="M163.487 17C141.528 17 128 32.3582 128 52.4119C128 72.5634 142.496 90 164.455 90H196.621L187.064 74.2729L165.987 76.2437C154.027 76.2437 146.555 66.8465 146.555 52.5644C146.555 38.3801 151.723 30.7931 163.683 30.7931L187.064 33.1016L196.621 17H163.487Z" fill="white"/>
<path fill-rule="evenodd" clip-rule="evenodd" d="M237.997 87.4894C240.828 89.1631 244.109 90 247.84 90C252.15 90 255.367 89.2275 257.49 87.6825C259.613 86.1376 261.06 84.5604 261.832 82.9511H263.183V90H275.535V41.3334H263.183V65.6667C263.183 70.1085 262.347 73.5847 260.288 76.0952C258.23 78.5414 255.335 79.7646 251.604 79.7646C248.323 79.7646 245.782 78.8633 243.98 77.0609C242.243 75.2584 241.568 72.5509 241.568 68.946V41.3334H229.216V69.9154C229.216 73.8422 229.988 77.3183 231.532 80.3439C233.076 83.3695 235.231 85.7513 237.997 87.4894Z" fill="white"/>
<path d="M508.271 17H511.817L518.193 27.6714L524.569 17H528V35H524.569V22.4L521.924 26.8357L519.279 31.2714H516.992L511.702 22.4V35H508.271V17Z" fill="white"/>
<path d="M494.98 19.6743H488.26V17H505.13V19.6743H498.411V35H494.98V19.6743Z" fill="white"/>
<rect width="108" height="108" rx="30" fill="#008CFF"/>
<g filter="url(#filter0_i_1326_16004)">
<path d="M66.57 45.2232C66.1532 45.6558 65.5804 45.8999 64.9822 45.8999H49.3861C48.802 45.8999 48.2415 46.1327 47.8268 46.5475L45.8727 48.5022C45.4538 48.9213 45.2181 49.4917 45.2181 50.0867V57.6732C45.2181 58.2652 45.4514 58.8329 45.8666 59.2515L47.8338 61.2349C48.249 61.6535 48.8121 61.8887 49.3993 61.8887H64.9877C65.5913 61.8887 66.1687 62.1371 66.5862 62.5765L83.3503 80.224C84.6987 81.6435 83.7008 84 81.7514 84H41.0717C40.4845 84 39.9214 83.7648 39.5062 83.3462L24.6484 68.3663C24.2333 67.9477 24 67.38 24 66.788V41.038C24 40.4416 24.2367 39.87 24.6574 39.4507L39.5203 24.6442C39.9347 24.2315 40.4938 24 41.0763 24H81.7817C83.7386 24 84.7332 26.3722 83.3697 27.7874L66.57 45.2232Z" fill="white"/>
</g>
<defs>
<filter id="filter0_i_1326_16004" x="24" y="24" width="60" height="64" filterUnits="userSpaceOnUse" color-interpolation-filters="sRGB">
<feFlood flood-opacity="0" result="BackgroundImageFix"/>
<feBlend mode="normal" in="SourceGraphic" in2="BackgroundImageFix" result="shape"/>
<feColorMatrix in="SourceAlpha" type="matrix" values="0 0 0 0 0 0 0 0 0 0 0 0 0 0 0 0 0 0 127 0" result="hardAlpha"/>
<feOffset dy="4"/>
<feGaussianBlur stdDeviation="8.25"/>
<feComposite in2="hardAlpha" operator="arithmetic" k2="-1" k3="1"/>
<feColorMatrix type="matrix" values="0 0 0 0 0.177885 0 0 0 0 0.177885 0 0 0 0 0.177885 0 0 0 0.1 0"/>
<feBlend mode="normal" in2="shape" result="effect1_innerShadow_1326_16004"/>
</filter>
</defs>
</svg>
