<?xml version="1.0" encoding="utf-8"?>
<svg width="528" height="108" viewBox="0 0 107.996 108" fill="none" xmlns="http://www.w3.org/2000/svg">
  <rect width="108" height="108" rx="30" fill="#008CFF"/>
  <g filter="url(#filter0_i_1326_16004)">
    <path d="M66.57 45.2232C66.1532 45.6558 65.5804 45.8999 64.9822 45.8999H49.3861C48.802 45.8999 48.2415 46.1327 47.8268 46.5475L45.8727 48.5022C45.4538 48.9213 45.2181 49.4917 45.2181 50.0867V57.6732C45.2181 58.2652 45.4514 58.8329 45.8666 59.2515L47.8338 61.2349C48.249 61.6535 48.8121 61.8887 49.3993 61.8887H64.9877C65.5913 61.8887 66.1687 62.1371 66.5862 62.5765L83.3503 80.224C84.6987 81.6435 83.7008 84 81.7514 84H41.0717C40.4845 84 39.9214 83.7648 39.5062 83.3462L24.6484 68.3663C24.2333 67.9477 24 67.38 24 66.788V41.038C24 40.4416 24.2367 39.87 24.6574 39.4507L39.5203 24.6442C39.9347 24.2315 40.4938 24 41.0763 24H81.7817C83.7386 24 84.7332 26.3722 83.3697 27.7874L66.57 45.2232Z" fill="white"/>
  </g>
  <defs>
    <filter id="filter0_i_1326_16004" x="24" y="24" width="60" height="64" filterUnits="userSpaceOnUse" color-interpolation-filters="sRGB">
      <feFlood flood-opacity="0" result="BackgroundImageFix"/>
      <feBlend mode="normal" in="SourceGraphic" in2="BackgroundImageFix" result="shape"/>
      <feColorMatrix in="SourceAlpha" type="matrix" values="0 0 0 0 0 0 0 0 0 0 0 0 0 0 0 0 0 0 127 0" result="hardAlpha"/>
      <feOffset dy="4"/>
      <feGaussianBlur stdDeviation="8.25"/>
      <feComposite in2="hardAlpha" operator="arithmetic" k2="-1" k3="1"/>
      <feColorMatrix type="matrix" values="0 0 0 0 0.177885 0 0 0 0 0.177885 0 0 0 0 0.177885 0 0 0 0.1 0"/>
      <feBlend mode="normal" in2="shape" result="effect1_innerShadow_1326_16004"/>
    </filter>
  </defs>
</svg>